<svg width="1600" height="900" viewBox="0 0 1600 900" fill="none" xmlns="http://www.w3.org/2000/svg">
  <defs>
    <linearGradient id="g" x1="0" y1="0" x2="1600" y2="900" gradientUnits="userSpaceOnUse">
      <stop stop-color="#F0F9FF"/>
      <stop offset="0.45" stop-color="#ECFEFF"/>
      <stop offset="1" stop-color="#E8F5F0"/>
    </linearGradient>
    <pattern id="p" width="200" height="200" patternUnits="userSpaceOnUse">
      <g opacity="0.14">
        <path d="M100 28c-40.2 0-72.8 32.6-72.8 72.8S59.8 173.6 100 173.6s72.8-32.6 72.8-72.8S140.2 28 100 28Z" stroke="#0EA5E9" stroke-width="1.75"/>
        <path d="M55 100h90" stroke="#0EA5E9" stroke-width="3.2" stroke-linecap="round"/>
        <path d="M100 55v90" stroke="#0EA5E9" stroke-width="3.2" stroke-linecap="round"/>
      </g>
      <g opacity="0.09" transform="translate(12 12)">
        <path d="M32 140h144" stroke="#22C55E" stroke-width="2" stroke-linecap="round" stroke-dasharray="3 12"/>
        <path d="M32 60h144" stroke="#22C55E" stroke-width="2" stroke-linecap="round" stroke-dasharray="3 12"/>
      </g>
    </pattern>
    <linearGradient id="ecgGrad" x1="0" y1="0" x2="1600" y2="0" gradientUnits="userSpaceOnUse">
      <stop stop-color="#0EA5E9" stop-opacity="0"/>
      <stop offset="0.15" stop-color="#0EA5E9" stop-opacity="0.35"/>
      <stop offset="0.85" stop-color="#22C55E" stop-opacity="0.28"/>
      <stop offset="1" stop-color="#22C55E" stop-opacity="0"/>
    </linearGradient>
    <filter id="blur" x="-20%" y="-20%" width="140%" height="140%">
      <feGaussianBlur stdDeviation="26"/>
    </filter>
  </defs>

  <rect width="1600" height="900" fill="url(#g)"/>
  <rect width="1600" height="900" fill="url(#p)"/>

  <g opacity="0.22">
    <path
      d="M0 620 L120 620 L140 620 L158 540 L182 700 L210 480 L232 620 L280 620 L320 620 L338 500 L360 660 L388 560 L410 620 L520 620 L540 620 L558 540 L582 700 L610 480 L632 620 L800 620 L820 620 L838 500 L860 660 L888 560 L910 620 L1040 620 L1060 620 L1078 540 L1102 700 L1130 480 L1152 620 L1320 620 L1340 620 L1358 500 L1380 660 L1408 560 L1430 620 L1600 620"
      stroke="url(#ecgGrad)"
      stroke-width="2.5"
      stroke-linecap="round"
      stroke-linejoin="round"
      fill="none"
    />
  </g>

  <g opacity="0.06" stroke="#0F172A" stroke-width="1">
    <path d="M0 450h1600M0 300h1600M0 600h1600"/>
  </g>

  <g filter="url(#blur)" opacity="0.5">
    <circle cx="200" cy="720" r="160" fill="#22C55E"/>
    <circle cx="1240" cy="180" r="150" fill="#0EA5E9"/>
    <circle cx="1380" cy="320" r="100" fill="#38BDF8"/>
    <circle cx="100" cy="120" r="90" fill="#67E8F9"/>
  </g>
</svg>
